# xmcd CD database file
#
# Track frame offsets:
#	150
#	33097
#	69006
#	100083
#	114447
#	142334
#
# Disc length: 2258 seconds
#
# Revision: 0
# Processed by: cddbd v1.5.1PL0 Copyright (c) Steve Scherf et al.
# Submitted via: CDex 1.51
#
DISCID=4708d006
DTITLE=Nathan Haines - The Return of the Squire for Hire [CD2]
DYEAR=2004
DGENRE=Jazz
TTITLE0=Doot Dude (Ashley Beedle Buff Boy Mix)
TTITLE1=Right By Your Side (Restless Soul Peaktime Mix)
TTITLE2=Squire For Hire (Restless Soul Capricorn Mix)
TTITLE3=AJ For Squire (A Restless Soul Reworking of Squire for Hire)
TTITLE4=Spring Time Rain (Restless Soul Drums and Bass Mix)
TTITLE5=Doot Dude Video
EXTD=YEAR: 2004
EXTT0=
EXTT1=
EXTT2=
EXTT3=
EXTT4=
EXTT5=
PLAYORDER=
